<svg xmlns="http://www.w3.org/2000/svg" width="16" height="16" fill="currentColor" class="bi bi-dash" viewBox="0 0 16 16">
  <path d="M0 7.5a.5.5 0 0 1 1 0v1a1 1 0 0 0 1 1h13a1 1 0 0 0 1-1v-1a.5.5 0 0 1 1 0v1a2 2 0 0 1-2 2H1a2 2 0 0 1-2-2v-1zM11 1a1 1 0 0 1 1 1v1a.5.5 0 0 0 1 0v-1a2 2 0 0 0-2-2H1a2 2 0 0 0-2 2v1a.5.5 0 0 0 1 0V2a1 1 0 0 1 1-1h10zM8 11.5a.5.5 0 0 1 1 0V13a1 1 0 0 0 1 1h2a.5.5 0 0 1 0 1h-2a2 2 0 0 1-2-2v-1zM5 11.5a.5.5 0 0 1 1 0V13a2 2 0 0 0 2 2h2a.5.5 0 0 1 0 1H8a1 1 0 0 1-1-1v-1a.5.5 0 0 1 1 0v1a2 2 0 0 0 2 2h2a2 2 0 0 0 2-2v-1a.5.5 0 0 1 1 0v1a1 1 0 0 1-1 1H6a1 1 0 0 1-1-1v-1zM15 0a1 1 0 0 1 1 1v14a1 1 0 0 1-2 0V1a1 1 0 0 1 1-1z"/>
</svg>